<svg xmlns="http://www.w3.org/2000/svg" viewBox="0 0 582 54" shape-rendering="crispEdges">
  <rect width="254" height="54" fill="#000"/>
  <rect x="278" width="304" height="54" fill="#000"/>
  <path fill="#fff" d="M1 0h252v1H1zM279 0h302v1H279zM0 1h254v1H0zM278 1h304v1H278zM0 2h254v1H0zM278 2h304v1H278zM0 3h254v1H0zM278 3h304v1H278zM0 4h4v1H0zM26 4h4v1H26zM50 4h4v1H50zM100 4h4v1H100zM126 4h4v1H126zM150 4h4v1H150zM200 4h4v1H200zM223 4h4v1H223zM250 4h4v1H250zM278 4h4v1H278zM328 4h4v1H328zM378 4h4v1H378zM404 4h4v1H404zM428 4h4v1H428zM478 4h4v1H478zM528 4h4v1H528zM578 4h4v1H578zM0 5h4v1H0zM26 5h4v1H26zM50 5h4v1H50zM100 5h4v1H100zM126 5h4v1H126zM150 5h4v1H150zM200 5h4v1H200zM223 5h4v1H223zM250 5h4v1H250zM278 5h4v1H278zM328 5h4v1H328zM378 5h4v1H378zM404 5h4v1H404zM428 5h4v1H428zM478 5h4v1H478zM528 5h4v1H528zM578 5h4v1H578zM0 6h4v1H0zM26 6h4v1H26zM50 6h4v1H50zM100 6h4v1H100zM126 6h4v1H126zM150 6h4v1H150zM200 6h4v1H200zM223 6h4v1H223zM250 6h4v1H250zM278 6h4v1H278zM328 6h4v1H328zM378 6h4v1H378zM404 6h4v1H404zM428 6h4v1H428zM478 6h4v1H478zM528 6h4v1H528zM578 6h4v1H578zM0 7h4v1H0zM26 7h4v1H26zM50 7h4v1H50zM100 7h4v1H100zM126 7h4v1H126zM150 7h4v1H150zM200 7h4v1H200zM223 7h4v1H223zM250 7h4v1H250zM278 7h4v1H278zM328 7h4v1H328zM378 7h4v1H378zM404 7h4v1H404zM428 7h4v1H428zM478 7h4v1H478zM528 7h4v1H528zM578 7h4v1H578zM0 8h4v1H0zM26 8h4v1H26zM50 8h4v1H50zM100 8h4v1H100zM126 8h4v1H126zM150 8h4v1H150zM200 8h4v1H200zM223 8h4v1H223zM250 8h4v1H250zM278 8h4v1H278zM328 8h4v1H328zM378 8h4v1H378zM404 8h4v1H404zM428 8h4v1H428zM478 8h4v1H478zM528 8h4v1H528zM578 8h4v1H578zM0 9h4v1H0zM26 9h4v1H26zM50 9h4v1H50zM100 9h4v1H100zM126 9h4v1H126zM150 9h4v1H150zM200 9h4v1H200zM223 9h4v1H223zM250 9h4v1H250zM278 9h4v1H278zM328 9h4v1H328zM378 9h4v1H378zM404 9h4v1H404zM428 9h4v1H428zM478 9h4v1H478zM528 9h4v1H528zM578 9h4v1H578zM0 10h4v1H0zM26 10h4v1H26zM50 10h4v1H50zM100 10h4v1H100zM126 10h4v1H126zM150 10h4v1H150zM200 10h4v1H200zM223 10h4v1H223zM250 10h4v1H250zM278 10h4v1H278zM328 10h4v1H328zM378 10h4v1H378zM404 10h4v1H404zM428 10h4v1H428zM478 10h4v1H478zM528 10h4v1H528zM578 10h4v1H578zM0 11h4v1H0zM26 11h4v1H26zM50 11h4v1H50zM75 11h2v1H75zM100 11h4v1H100zM126 11h4v1H126zM150 11h4v1H150zM200 11h4v1H200zM223 11h4v1H223zM250 11h4v1H250zM278 11h4v1H278zM328 11h4v1H328zM353 11h2v1H353zM378 11h4v1H378zM404 11h4v1H404zM428 11h4v1H428zM453 11h2v1H453zM478 11h4v1H478zM504 11h2v1H504zM528 11h4v1H528zM553 11h2v1H553zM578 11h4v1H578zM0 12h4v1H0zM26 12h4v1H26zM50 12h4v1H50zM74 12h4v1H74zM100 12h4v1H100zM126 12h4v1H126zM150 12h4v1H150zM200 12h4v1H200zM223 12h4v1H223zM250 12h4v1H250zM278 12h4v1H278zM328 12h4v1H328zM352 12h4v1H352zM378 12h4v1H378zM404 12h4v1H404zM428 12h4v1H428zM452 12h4v1H452zM478 12h4v1H478zM503 12h4v1H503zM528 12h4v1H528zM552 12h4v1H552zM578 12h4v1H578zM0 13h4v1H0zM26 13h4v1H26zM50 13h4v1H50zM74 13h4v1H74zM100 13h4v1H100zM126 13h4v1H126zM150 13h4v1H150zM200 13h4v1H200zM223 13h4v1H223zM250 13h4v1H250zM278 13h4v1H278zM328 13h4v1H328zM352 13h4v1H352zM378 13h4v1H378zM404 13h4v1H404zM428 13h4v1H428zM452 13h4v1H452zM478 13h4v1H478zM503 13h4v1H503zM528 13h4v1H528zM552 13h4v1H552zM578 13h4v1H578zM0 14h4v1H0zM26 14h4v1H26zM50 14h4v1H50zM74 14h4v1H74zM100 14h4v1H100zM126 14h4v1H126zM150 14h4v1H150zM200 14h4v1H200zM223 14h4v1H223zM250 14h4v1H250zM278 14h4v1H278zM328 14h4v1H328zM352 14h4v1H352zM378 14h4v1H378zM404 14h4v1H404zM428 14h4v1H428zM452 14h4v1H452zM478 14h4v1H478zM503 14h4v1H503zM528 14h4v1H528zM552 14h4v1H552zM578 14h4v1H578zM0 15h4v1H0zM26 15h4v1H26zM50 15h4v1H50zM74 15h4v1H74zM100 15h4v1H100zM126 15h4v1H126zM150 15h4v1H150zM200 15h4v1H200zM223 15h4v1H223zM250 15h4v1H250zM278 15h4v1H278zM328 15h4v1H328zM352 15h4v1H352zM378 15h4v1H378zM404 15h4v1H404zM428 15h4v1H428zM452 15h4v1H452zM478 15h4v1H478zM503 15h4v1H503zM528 15h4v1H528zM552 15h4v1H552zM578 15h4v1H578zM0 16h4v1H0zM26 16h4v1H26zM50 16h4v1H50zM74 16h4v1H74zM100 16h4v1H100zM126 16h4v1H126zM150 16h4v1H150zM200 16h4v1H200zM223 16h4v1H223zM250 16h4v1H250zM278 16h4v1H278zM328 16h4v1H328zM352 16h4v1H352zM378 16h4v1H378zM404 16h4v1H404zM428 16h4v1H428zM452 16h4v1H452zM478 16h4v1H478zM503 16h4v1H503zM528 16h4v1H528zM552 16h4v1H552zM578 16h4v1H578zM0 17h4v1H0zM26 17h4v1H26zM50 17h4v1H50zM74 17h4v1H74zM100 17h4v1H100zM126 17h4v1H126zM150 17h4v1H150zM170 17h13v1H170zM200 17h4v1H200zM223 17h4v1H223zM250 17h4v1H250zM278 17h4v1H278zM328 17h4v1H328zM352 17h4v1H352zM378 17h4v1H378zM404 17h4v1H404zM428 17h4v1H428zM452 17h4v1H452zM478 17h4v1H478zM503 17h4v1H503zM528 17h4v1H528zM552 17h4v1H552zM578 17h4v1H578zM0 18h4v1H0zM27 18h2v1H27zM50 18h4v1H50zM74 18h4v1H74zM100 18h4v1H100zM127 18h2v1H127zM150 18h4v1H150zM169 18h15v1H169zM200 18h4v1H200zM224 18h2v1H224zM250 18h4v1H250zM278 18h4v1H278zM328 18h4v1H328zM352 18h4v1H352zM378 18h4v1H378zM405 18h2v1H405zM428 18h4v1H428zM452 18h4v1H452zM478 18h4v1H478zM503 18h4v1H503zM528 18h4v1H528zM552 18h4v1H552zM578 18h4v1H578zM0 19h4v1H0zM50 19h4v1H50zM74 19h4v1H74zM100 19h4v1H100zM150 19h4v1H150zM169 19h15v1H169zM200 19h4v1H200zM250 19h4v1H250zM278 19h4v1H278zM328 19h4v1H328zM352 19h4v1H352zM378 19h4v1H378zM428 19h4v1H428zM452 19h4v1H452zM478 19h4v1H478zM503 19h4v1H503zM528 19h4v1H528zM552 19h4v1H552zM578 19h4v1H578zM0 20h4v1H0zM50 20h4v1H50zM74 20h4v1H74zM100 20h4v1H100zM150 20h4v1H150zM170 20h13v1H170zM200 20h4v1H200zM250 20h4v1H250zM278 20h4v1H278zM328 20h4v1H328zM352 20h4v1H352zM378 20h4v1H378zM428 20h4v1H428zM452 20h4v1H452zM478 20h4v1H478zM503 20h4v1H503zM528 20h4v1H528zM552 20h4v1H552zM578 20h4v1H578zM0 21h4v1H0zM50 21h4v1H50zM74 21h4v1H74zM100 21h4v1H100zM150 21h4v1H150zM200 21h4v1H200zM250 21h4v1H250zM278 21h4v1H278zM328 21h4v1H328zM352 21h4v1H352zM378 21h4v1H378zM428 21h4v1H428zM452 21h4v1H452zM478 21h4v1H478zM503 21h4v1H503zM528 21h4v1H528zM552 21h4v1H552zM578 21h4v1H578zM0 22h4v1H0zM50 22h4v1H50zM75 22h2v1H75zM100 22h4v1H100zM150 22h4v1H150zM200 22h4v1H200zM250 22h4v1H250zM278 22h4v1H278zM328 22h4v1H328zM353 22h2v1H353zM378 22h4v1H378zM428 22h4v1H428zM453 22h2v1H453zM478 22h4v1H478zM504 22h2v1H504zM528 22h4v1H528zM553 22h2v1H553zM578 22h4v1H578zM0 23h4v1H0zM37 23h2v1H37zM50 23h4v1H50zM100 23h4v1H100zM137 23h2v1H137zM150 23h4v1H150zM200 23h4v1H200zM250 23h4v1H250zM278 23h4v1H278zM328 23h4v1H328zM378 23h4v1H378zM415 23h2v1H415zM428 23h4v1H428zM478 23h4v1H478zM528 23h4v1H528zM578 23h4v1H578zM0 24h4v1H0zM36 24h4v1H36zM50 24h4v1H50zM100 24h4v1H100zM136 24h4v1H136zM150 24h4v1H150zM200 24h4v1H200zM250 24h4v1H250zM278 24h4v1H278zM328 24h4v1H328zM378 24h4v1H378zM414 24h4v1H414zM428 24h4v1H428zM478 24h4v1H478zM528 24h4v1H528zM578 24h4v1H578zM0 25h4v1H0zM15 25h3v1H15zM35 25h5v1H35zM50 25h4v1H50zM100 25h4v1H100zM115 25h3v1H115zM135 25h5v1H135zM150 25h4v1H150zM200 25h4v1H200zM250 25h4v1H250zM278 25h4v1H278zM328 25h4v1H328zM378 25h4v1H378zM393 25h3v1H393zM413 25h5v1H413zM428 25h4v1H428zM478 25h4v1H478zM528 25h4v1H528zM578 25h4v1H578zM0 26h4v1H0zM15 26h5v1H15zM34 26h5v1H34zM50 26h4v1H50zM100 26h4v1H100zM115 26h5v1H115zM134 26h5v1H134zM150 26h4v1H150zM200 26h4v1H200zM250 26h4v1H250zM278 26h4v1H278zM328 26h4v1H328zM378 26h4v1H378zM393 26h5v1H393zM412 26h5v1H412zM428 26h4v1H428zM478 26h4v1H478zM528 26h4v1H528zM578 26h4v1H578zM0 27h4v1H0zM15 27h6v1H15zM33 27h6v1H33zM50 27h4v1H50zM100 27h4v1H100zM115 27h6v1H115zM133 27h6v1H133zM150 27h4v1H150zM185 27h19v1H185zM250 27h4v1H250zM278 27h4v1H278zM305 27h27v1H305zM378 27h4v1H378zM393 27h6v1H393zM411 27h6v1H411zM428 27h4v1H428zM478 27h4v1H478zM517 27h15v1H517zM578 27h4v1H578zM0 28h4v1H0zM16 28h6v1H16zM32 28h6v1H32zM50 28h4v1H50zM100 28h4v1H100zM116 28h6v1H116zM132 28h6v1H132zM150 28h4v1H150zM185 28h19v1H185zM250 28h4v1H250zM278 28h4v1H278zM304 28h28v1H304zM378 28h4v1H378zM394 28h6v1H394zM410 28h6v1H410zM428 28h4v1H428zM478 28h4v1H478zM516 28h16v1H516zM578 28h4v1H578zM0 29h4v1H0zM17 29h6v1H17zM32 29h5v1H32zM50 29h4v1H50zM100 29h4v1H100zM117 29h6v1H117zM132 29h5v1H132zM150 29h4v1H150zM185 29h19v1H185zM250 29h4v1H250zM278 29h4v1H278zM304 29h28v1H304zM378 29h4v1H378zM395 29h6v1H395zM410 29h5v1H410zM428 29h4v1H428zM478 29h4v1H478zM516 29h16v1H516zM578 29h4v1H578zM0 30h4v1H0zM18 30h6v1H18zM31 30h5v1H31zM50 30h4v1H50zM100 30h4v1H100zM118 30h6v1H118zM131 30h5v1H131zM150 30h4v1H150zM185 30h46v1H185zM250 30h4v1H250zM278 30h4v1H278zM305 30h27v1H305zM378 30h4v1H378zM396 30h6v1H396zM409 30h5v1H409zM428 30h4v1H428zM478 30h4v1H478zM517 30h15v1H517zM578 30h4v1H578zM0 31h4v1H0zM19 31h7v1H19zM30 31h5v1H30zM50 31h4v1H50zM100 31h4v1H100zM119 31h7v1H119zM130 31h5v1H130zM150 31h4v1H150zM200 31h33v1H200zM250 31h4v1H250zM278 31h4v1H278zM328 31h4v1H328zM378 31h4v1H378zM397 31h7v1H397zM408 31h5v1H408zM428 31h4v1H428zM478 31h4v1H478zM528 31h4v1H528zM578 31h4v1H578zM0 32h4v1H0zM21 32h6v1H21zM29 32h6v1H29zM50 32h4v1H50zM100 32h4v1H100zM121 32h6v1H121zM129 32h6v1H129zM150 32h4v1H150zM200 32h33v1H200zM250 32h4v1H250zM278 32h4v1H278zM328 32h4v1H328zM378 32h4v1H378zM399 32h6v1H399zM407 32h6v1H407zM428 32h4v1H428zM478 32h4v1H478zM528 32h4v1H528zM578 32h4v1H578zM0 33h4v1H0zM22 33h12v1H22zM50 33h4v1H50zM100 33h4v1H100zM122 33h12v1H122zM150 33h4v1H150zM200 33h33v1H200zM250 33h4v1H250zM278 33h4v1H278zM328 33h4v1H328zM378 33h4v1H378zM400 33h12v1H400zM428 33h4v1H428zM478 33h4v1H478zM528 33h4v1H528zM578 33h4v1H578zM0 34h4v1H0zM23 34h10v1H23zM50 34h4v1H50zM100 34h4v1H100zM123 34h10v1H123zM150 34h4v1H150zM200 34h32v1H200zM250 34h4v1H250zM278 34h4v1H278zM328 34h4v1H328zM378 34h4v1H378zM401 34h10v1H401zM428 34h4v1H428zM478 34h4v1H478zM528 34h4v1H528zM578 34h4v1H578zM0 35h4v1H0zM24 35h8v1H24zM50 35h4v1H50zM75 35h2v1H75zM100 35h4v1H100zM124 35h8v1H124zM150 35h4v1H150zM200 35h4v1H200zM250 35h4v1H250zM278 35h4v1H278zM328 35h4v1H328zM353 35h2v1H353zM378 35h4v1H378zM402 35h8v1H402zM428 35h4v1H428zM453 35h2v1H453zM478 35h4v1H478zM505 35h2v1H505zM528 35h4v1H528zM553 35h2v1H553zM578 35h4v1H578zM0 36h4v1H0zM25 36h6v1H25zM50 36h4v1H50zM74 36h4v1H74zM100 36h4v1H100zM125 36h6v1H125zM150 36h4v1H150zM170 36h13v1H170zM200 36h4v1H200zM250 36h4v1H250zM278 36h4v1H278zM328 36h4v1H328zM352 36h4v1H352zM378 36h4v1H378zM403 36h6v1H403zM428 36h4v1H428zM452 36h4v1H452zM478 36h4v1H478zM504 36h4v1H504zM528 36h4v1H528zM552 36h4v1H552zM578 36h4v1H578zM0 37h4v1H0zM26 37h4v1H26zM50 37h4v1H50zM74 37h4v1H74zM100 37h4v1H100zM126 37h4v1H126zM150 37h4v1H150zM169 37h15v1H169zM200 37h4v1H200zM250 37h4v1H250zM278 37h4v1H278zM328 37h4v1H328zM352 37h4v1H352zM378 37h4v1H378zM404 37h4v1H404zM428 37h4v1H428zM452 37h4v1H452zM478 37h4v1H478zM504 37h4v1H504zM528 37h4v1H528zM552 37h4v1H552zM578 37h4v1H578zM0 38h4v1H0zM26 38h4v1H26zM50 38h4v1H50zM74 38h4v1H74zM100 38h4v1H100zM126 38h4v1H126zM150 38h4v1H150zM169 38h15v1H169zM200 38h4v1H200zM250 38h4v1H250zM278 38h4v1H278zM328 38h4v1H328zM352 38h4v1H352zM378 38h4v1H378zM404 38h4v1H404zM428 38h4v1H428zM452 38h4v1H452zM478 38h4v1H478zM504 38h4v1H504zM528 38h4v1H528zM552 38h4v1H552zM578 38h4v1H578zM0 39h4v1H0zM26 39h4v1H26zM50 39h4v1H50zM74 39h4v1H74zM100 39h4v1H100zM126 39h4v1H126zM150 39h4v1H150zM170 39h13v1H170zM200 39h4v1H200zM250 39h4v1H250zM278 39h4v1H278zM328 39h4v1H328zM352 39h4v1H352zM378 39h4v1H378zM404 39h4v1H404zM428 39h4v1H428zM452 39h4v1H452zM478 39h4v1H478zM504 39h4v1H504zM528 39h4v1H528zM552 39h4v1H552zM578 39h4v1H578zM0 40h4v1H0zM26 40h4v1H26zM50 40h4v1H50zM74 40h4v1H74zM100 40h4v1H100zM126 40h4v1H126zM150 40h4v1H150zM200 40h4v1H200zM250 40h4v1H250zM278 40h4v1H278zM328 40h4v1H328zM352 40h4v1H352zM378 40h4v1H378zM404 40h4v1H404zM428 40h4v1H428zM452 40h4v1H452zM478 40h4v1H478zM504 40h4v1H504zM528 40h4v1H528zM552 40h4v1H552zM578 40h4v1H578zM0 41h4v1H0zM26 41h4v1H26zM50 41h4v1H50zM74 41h4v1H74zM100 41h4v1H100zM126 41h4v1H126zM150 41h4v1H150zM200 41h4v1H200zM250 41h4v1H250zM278 41h4v1H278zM328 41h4v1H328zM352 41h4v1H352zM378 41h4v1H378zM404 41h4v1H404zM428 41h4v1H428zM452 41h4v1H452zM478 41h4v1H478zM504 41h4v1H504zM528 41h4v1H528zM552 41h4v1H552zM578 41h4v1H578zM0 42h4v1H0zM26 42h4v1H26zM50 42h4v1H50zM74 42h4v1H74zM100 42h4v1H100zM126 42h4v1H126zM150 42h4v1H150zM200 42h4v1H200zM250 42h4v1H250zM278 42h4v1H278zM328 42h4v1H328zM352 42h4v1H352zM378 42h4v1H378zM404 42h4v1H404zM428 42h4v1H428zM452 42h4v1H452zM478 42h4v1H478zM504 42h4v1H504zM528 42h4v1H528zM552 42h4v1H552zM578 42h4v1H578zM0 43h4v1H0zM26 43h4v1H26zM50 43h4v1H50zM74 43h4v1H74zM100 43h4v1H100zM126 43h4v1H126zM150 43h4v1H150zM200 43h4v1H200zM250 43h4v1H250zM278 43h4v1H278zM328 43h4v1H328zM352 43h4v1H352zM378 43h4v1H378zM404 43h4v1H404zM428 43h4v1H428zM452 43h4v1H452zM478 43h4v1H478zM504 43h4v1H504zM528 43h4v1H528zM552 43h4v1H552zM578 43h4v1H578zM0 44h4v1H0zM26 44h4v1H26zM50 44h4v1H50zM74 44h4v1H74zM100 44h4v1H100zM126 44h4v1H126zM150 44h4v1H150zM200 44h4v1H200zM250 44h4v1H250zM278 44h4v1H278zM328 44h4v1H328zM352 44h4v1H352zM378 44h4v1H378zM404 44h4v1H404zM428 44h4v1H428zM452 44h4v1H452zM478 44h4v1H478zM504 44h4v1H504zM528 44h4v1H528zM552 44h4v1H552zM578 44h4v1H578zM0 45h4v1H0zM26 45h4v1H26zM50 45h4v1H50zM74 45h4v1H74zM100 45h4v1H100zM126 45h4v1H126zM150 45h4v1H150zM200 45h4v1H200zM250 45h4v1H250zM278 45h4v1H278zM328 45h4v1H328zM352 45h4v1H352zM378 45h4v1H378zM404 45h4v1H404zM428 45h4v1H428zM452 45h4v1H452zM478 45h4v1H478zM504 45h4v1H504zM528 45h4v1H528zM552 45h4v1H552zM578 45h4v1H578zM0 46h4v1H0zM26 46h4v1H26zM50 46h4v1H50zM74 46h4v1H74zM100 46h4v1H100zM126 46h4v1H126zM150 46h4v1H150zM200 46h4v1H200zM250 46h4v1H250zM278 46h4v1H278zM328 46h4v1H328zM352 46h4v1H352zM378 46h4v1H378zM404 46h4v1H404zM428 46h4v1H428zM452 46h4v1H452zM478 46h4v1H478zM504 46h4v1H504zM528 46h4v1H528zM552 46h4v1H552zM578 46h4v1H578zM0 47h4v1H0zM26 47h4v1H26zM50 47h4v1H50zM74 47h4v1H74zM100 47h4v1H100zM126 47h4v1H126zM150 47h4v1H150zM200 47h4v1H200zM250 47h4v1H250zM278 47h4v1H278zM328 47h4v1H328zM352 47h4v1H352zM378 47h4v1H378zM404 47h4v1H404zM428 47h4v1H428zM452 47h4v1H452zM478 47h4v1H478zM504 47h4v1H504zM528 47h4v1H528zM552 47h4v1H552zM578 47h4v1H578zM0 48h4v1H0zM26 48h4v1H26zM50 48h4v1H50zM74 48h4v1H74zM100 48h4v1H100zM126 48h4v1H126zM150 48h4v1H150zM200 48h4v1H200zM250 48h4v1H250zM278 48h4v1H278zM328 48h4v1H328zM352 48h4v1H352zM378 48h4v1H378zM404 48h4v1H404zM428 48h4v1H428zM452 48h4v1H452zM478 48h4v1H478zM504 48h4v1H504zM528 48h4v1H528zM552 48h4v1H552zM578 48h4v1H578zM0 49h4v1H0zM26 49h4v1H26zM50 49h4v1H50zM74 49h4v1H74zM100 49h4v1H100zM126 49h4v1H126zM150 49h4v1H150zM200 49h4v1H200zM250 49h4v1H250zM278 49h4v1H278zM328 49h4v1H328zM352 49h4v1H352zM378 49h4v1H378zM404 49h4v1H404zM428 49h4v1H428zM452 49h4v1H452zM478 49h4v1H478zM504 49h4v1H504zM528 49h4v1H528zM552 49h4v1H552zM578 49h4v1H578zM0 50h254v1H0zM278 50h304v1H278zM0 51h254v1H0zM278 51h304v1H278zM0 52h254v1H0zM278 52h304v1H278zM1 53h252v1H1zM279 53h302v1H279z"/>
</svg>
